{"title":"Icarus.2010.DVDRiP.XViD.Optional.NORDIC.Zen_Bud","uid":5845102,"size":749123830,"categoryP":"video","categoryS":"movies","magnet":"?xt=urn:btih:cedb324770f00770cb5551f89b6bd3a02639a349&amp;dn=Icarus.2010.DVDRiP.XViD.Optional.NORDIC.Zen_Bud&amp;tr=udp%3A%2F%2Ftracker.openbittorrent.com%3A80&amp;tr=udp%3A%2F%2Fopen.demonii.com%3A1337&amp;tr=udp%3A%2F%2Ftracker.coppersurfer.tk%3A6969&amp;tr=udp%3A%2F%2Fexodus.desync.com%3A6969","seeders":0,"leechers":0,"uploader":"Zen_Bud","files":-1,"time":1285139402,"description":"\n******* Icarus.2010.DVDRiP.XViD.Optional.NORDIC.Zen_Bud ********\nFormat                           : AVI\nFile size                        : 706 MiB\nDuration                         : 1h 24mn\nOverall bit rate                 : 1 168 Kbps\n\nVideo\n\nFormat                           : MPEG-4 Visual\nCodec ID/Hint                    : XviD\nDuration                         : 1h 24mn\nBit rate                         : 1 027 Kbps\nWidth                            : 720 pixels\nHeight                           : 576 pixels\nDisplay aspect ratio             : 16:9\nStream size                      : 621 MiB (88%)\nWriting library                  : XviD 1.1.2 (UTC 2006-11-01)\n\nAudio\n\nFormat                           : MPEG Audio\nCodec ID/Hint                    : MP3\nDuration                         : 1h 24mn\nBit rate                         : 128 Kbps\nChannel(s)                       : 2 channels\nSampling rate                    : 48.0 KHz\nStream size                      : 77.3 MiB (11%)\n\n\n","torrent":{"xt":"urn:btih:cedb324770f00770cb5551f89b6bd3a02639a349","amp;dn":"Icarus.2010.DVDRiP.XViD.Optional.NORDIC.Zen_Bud","amp;tr":["udp%3A%2F%2Ftracker.openbittorrent.com%3A80","udp%3A%2F%2Fopen.demonii.com%3A1337","udp%3A%2F%2Ftracker.coppersurfer.tk%3A6969","udp%3A%2F%2Fexodus.desync.com%3A6969"],"infoHash":"cedb324770f00770cb5551f89b6bd3a02639a349","infoHashBuffer":{"type":"Buffer","data":[206,219,50,71,112,240,7,112,203,85,81,248,155,107,211,160,38,57,163,73]},"announce":[],"urlList":[]}}